<svg xmlns="http://www.w3.org/2000/svg" width="1000" height="1000" viewBox="0 0 1000 1000" version="1.1">
	<path d="M 343.459 140.663 C 281.573 178.285, 244.006 235.655, 233.881 308 C 232.099 320.732, 232.367 350.301, 234.391 364.353 C 241.620 414.549, 264.382 459.722, 300.078 494.717 C 312.522 506.916, 324.436 516.392, 337.456 524.447 C 342.728 527.708, 346.897 530.629, 346.720 530.938 C 346.543 531.247, 343.645 537.125, 340.280 544 C 318.367 588.771, 312.315 640.653, 323.136 690.960 C 329.974 722.754, 347.717 758.820, 369.154 784.500 C 397.434 818.378, 433.363 842.775, 474.265 855.875 C 497.142 863.201, 516.624 866.129, 542.500 866.129 C 570.020 866.129, 589.426 863, 614.589 854.503 C 686.814 830.117, 741.829 770.634, 760.592 696.643 C 769.139 662.936, 769.313 620.558, 761.037 588.145 C 755.790 567.596, 748.662 549.392, 739.346 532.750 L 733.887 523 722.590 523 L 711.292 523 713.632 518.111 C 717.253 510.545, 718.969 501.504, 718.985 489.910 C 719.022 463.767, 707.354 443.186, 686.736 433.023 C 678.793 429.109, 667.775 426.053, 661.467 426.017 L 658.435 426 658.828 419.043 C 660.290 393.159, 635.777 369.027, 601.325 362.435 C 591.717 360.597, 576.430 360.626, 567.588 362.499 C 559.961 364.115, 550.098 368.486, 545.574 372.254 L 542.649 374.692 537.136 370.830 C 534.103 368.706, 527.995 365.759, 523.561 364.282 C 516.185 361.824, 514.184 361.598, 500 361.617 C 487.233 361.635, 483.089 362.023, 476.500 363.819 C 454.957 369.689, 437.618 383.073, 429.630 400 C 427.026 405.519, 426.504 407.951, 426.170 416.119 L 425.778 425.738 419.848 426.358 C 405.991 427.806, 389.559 436.014, 380.960 445.783 C 375.143 452.391, 370.490 461.183, 367.878 470.500 C 363.707 485.375, 365.124 506.483, 371.077 518.150 C 372.134 520.224, 373 522.163, 373 522.460 C 373 522.757, 369.175 523, 364.500 523 L 356 523 356 328.500 C 356 221.525, 355.644 134, 355.209 134 C 354.774 134, 349.487 136.998, 343.459 140.663 M 330 170.699 C 325.875 173.813, 317.284 181.568, 310.908 187.931 C 230.452 268.228, 229.386 396.180, 308.485 478.880 C 316.029 486.768, 336.403 504, 338.185 504 C 338.633 504, 339 427.725, 339 334.500 C 339 241.275, 338.663 165.008, 338.250 165.019 C 337.837 165.029, 334.125 167.585, 330 170.699 M 494.647 379.250 C 495.068 379.938, 496.965 382.525, 498.863 385 C 513.235 403.739, 513.242 433, 498.876 433 C 497.760 433, 495.533 431.687, 493.928 430.082 C 491.020 427.174, 491.012 427.133, 491.648 418.185 C 492.254 409.642, 492.140 408.898, 489.298 402.853 C 486.238 396.345, 477.241 384.690, 474.450 383.619 C 472.484 382.865, 465.180 386.549, 457.854 391.989 C 445.842 400.910, 440.653 413.287, 444.016 425 C 444.907 428.102, 445.942 428.935, 453.123 432.328 C 462.533 436.774, 473.155 446.558, 476.843 454.176 C 478.923 458.473, 478.986 459.098, 477.656 462.281 C 475.738 466.870, 471.272 468.558, 466.415 466.529 C 464.537 465.744, 463 464.655, 463 464.108 C 463 461.744, 451.303 450.677, 445.945 447.972 C 429.679 439.761, 409.663 442.640, 396.507 455.081 C 386.499 464.547, 382.495 476.076, 383.190 493.424 C 383.566 502.809, 383.899 504.169, 388.047 513.247 L 392.500 522.993 418.250 522.997 L 444 523 443.996 519.250 C 443.993 515.644, 443.741 515.370, 437.436 512.110 C 420.917 503.568, 410 485.119, 410 465.744 C 410 459.820, 410.327 458.582, 412.455 456.455 C 415.994 452.915, 421.068 453.104, 424.257 456.894 C 426.126 459.115, 426.826 461.382, 427.267 466.645 C 429.190 489.581, 443.855 501.731, 471.960 503.675 C 479.978 504.229, 481.769 504.678, 483.710 506.619 C 488.174 511.084, 485.733 519.025, 479.407 520.613 C 478.012 520.963, 473.299 521.043, 468.935 520.790 C 462.756 520.432, 461 520.626, 461 521.665 C 461 522.754, 467.732 523, 497.500 523 L 534 523 534 509.544 L 534 496.089 529.925 497.527 C 527.683 498.317, 522.023 499.518, 517.347 500.194 C 510.079 501.245, 508.460 501.207, 506.197 499.937 C 502.713 497.982, 500.538 493.978, 501.303 490.931 C 502.573 485.871, 504.240 484.844, 513.566 483.374 C 523.104 481.871, 529.415 479.806, 532.250 477.261 C 533.865 475.811, 534 472.390, 534 432.949 L 534 390.207 530.353 387.005 C 523.734 381.194, 513.061 378, 500.257 378 C 495.416 378, 494.066 378.301, 494.647 379.250 M 571.251 379.516 C 564.032 381.085, 555.665 385.339, 552.908 388.844 C 551.127 391.108, 551 393.264, 551 421.254 L 551 451.238 554.562 457.103 C 563.637 472.041, 575.347 478.512, 586 474.475 C 593.792 471.521, 597.165 471.496, 600.265 474.370 C 602.215 476.177, 603 477.883, 603 480.316 C 603 485.079, 599.180 488.555, 591.255 491.003 C 578.982 494.794, 568.656 493.101, 557.512 485.471 L 551 481.013 551 502.007 L 551 523 587.500 523 C 617.076 523, 624 522.749, 624 521.679 C 624 520.658, 622.128 520.452, 615.750 520.772 C 605.659 521.278, 602.383 520.161, 600.462 515.562 C 598.867 511.747, 599.293 509.616, 602.323 506.250 C 603.961 504.430, 605.415 503.999, 609.924 503.992 C 612.991 503.988, 618.385 503.517, 621.911 502.945 C 644.728 499.243, 656.663 487.241, 658.635 466.013 C 659.332 458.515, 661.121 455.510, 665.547 454.399 C 668.943 453.547, 673.500 455.607, 674.870 458.615 C 677.316 463.983, 674.865 479.296, 669.885 489.760 C 665.883 498.169, 656.007 508.237, 647.250 512.835 C 641.038 516.097, 640.108 517.512, 641.607 521.418 C 642.138 522.803, 645.350 523, 667.357 522.997 L 692.500 522.993 696.953 513.247 C 701.101 504.169, 701.434 502.809, 701.810 493.424 C 702.285 481.572, 700.977 474.275, 696.925 466.166 C 693.301 458.913, 684.834 450.701, 677.752 447.569 C 657.639 438.674, 636.756 443.721, 624.054 460.545 C 619.027 467.203, 616.247 468.548, 611.562 466.590 C 609.172 465.592, 607.887 464.188, 607.054 461.665 C 606.041 458.595, 606.175 457.574, 608.083 453.818 C 611.750 446.598, 622.756 436.641, 631.865 432.303 C 639.423 428.704, 639.907 428.276, 640.925 424.307 C 642.392 418.587, 642.279 415.301, 640.397 408.966 C 638.263 401.779, 627.562 390.944, 617.665 385.949 L 610.831 382.500 604.906 388.897 C 595.082 399.504, 590.432 411.662, 592.850 420.420 C 595.396 429.641, 586.827 436.584, 579.760 431.026 C 575.248 427.477, 573.630 414.734, 576.379 404.409 C 578.065 398.078, 582.041 390.074, 586.554 383.927 C 588.449 381.345, 590 378.955, 590 378.616 C 590 377.526, 577.696 378.117, 571.251 379.516 M 356.579 549.601 C 343.956 575.199, 336.893 602.018, 335.339 630.250 L 334.693 642 358.346 642 L 382 642 382 639.552 C 382 631.277, 390.781 612.757, 399.599 602.435 C 423.561 574.388, 467.095 568.698, 498.456 589.515 C 514.314 600.041, 527.518 619.934, 530.471 637.750 L 531.176 642 547.474 642 L 563.773 642 564.483 637.267 C 564.873 634.664, 566.279 629.649, 567.606 626.121 C 576.689 601.992, 595.523 585.309, 620.923 578.897 C 633.441 575.736, 650.122 576.467, 662.261 580.709 C 674.721 585.062, 681.225 589.233, 691.573 599.509 C 699.051 606.934, 701.449 610.122, 705.207 617.630 C 707.716 622.641, 710.578 630.174, 711.567 634.370 L 713.366 642 731.683 642 L 750 642 750 633.724 C 750 609.110, 742.281 577.617, 730.030 552.250 L 724.114 540 542.713 540 L 361.313 540 356.579 549.601 M 442.601 595.594 C 423.015 600.333, 406.429 616.265, 400.277 636.247 C 397.713 644.574, 398.030 661.822, 400.897 670 C 407.638 689.227, 422.961 703.584, 442 708.512 C 450.954 710.830, 467.203 710.185, 475.432 707.186 C 489.941 701.897, 501.607 691.662, 508.068 678.551 C 516.908 660.615, 517.003 643.692, 508.364 626 C 503.595 616.234, 492.402 604.906, 482.947 600.277 C 470.560 594.212, 455.525 592.467, 442.601 595.594 M 623.500 595.891 C 612.099 599.212, 605.948 602.879, 597.457 611.415 C 584.645 624.295, 579.196 638.399, 580.349 655.699 C 582.418 686.743, 607.680 710.434, 638.450 710.185 C 655.293 710.049, 666.865 705.150, 679.234 692.921 C 685.086 687.135, 687.825 683.469, 690.490 677.859 C 701.740 654.169, 697.460 629.020, 679.111 611 C 670.823 602.861, 662.946 598.324, 652.356 595.587 C 644.360 593.522, 631.154 593.660, 623.500 595.891 M 336 662.401 C 336 672.481, 343.223 702.148, 349.658 718.500 C 371.094 772.966, 418.339 818.283, 474.036 837.801 C 509.881 850.363, 553.031 852.626, 590.222 843.894 C 649.625 829.948, 701.001 789.240, 728.283 734.500 C 739.671 711.650, 746.288 689.197, 749.279 663.250 L 749.654 660 731.530 660 L 713.406 660 712.335 666.250 C 708.530 688.458, 693.044 708.903, 671.999 719.501 C 634.230 738.521, 588.326 722.586, 570.146 684.144 C 567.540 678.635, 565.307 671.415, 563.527 662.750 L 562.962 660 546.981 660 L 531 660 531 662.606 C 531 671.733, 523.047 689.917, 514.549 700.219 C 498.429 719.762, 471.754 730.405, 447.309 727.046 C 420.946 723.424, 399.298 707.726, 388.146 684.144 C 385.540 678.635, 383.307 671.415, 381.527 662.750 L 380.962 660 358.481 660 L 336 660 336 662.401" stroke="none" fill="black" fill-rule="evenodd"/>
</svg>