<?xml version="1.0" encoding="UTF-8" standalone="no"?>
<!-- Created with Inkscape (http://www.inkscape.org/) -->
<svg
   xmlns:svg="http://www.w3.org/2000/svg"
   xmlns="http://www.w3.org/2000/svg"
   version="1.0"
   width="200"
   height="200"
   id="svg2">
  <defs
     id="defs4" />
  <g
     id="layer1">
    <path
       d="M 100,0 C 44.799998,0 0,44.800001 0,100 C -5.0495145e-15,155.2 44.8,200 100,200 C 155.2,200 200,155.2 200,100 C 200,44.800001 155.2,0 100,0 z M 100,12.8125 C 148.12953,12.8125 187.1875,51.870475 187.1875,100 C 187.18751,148.12953 148.12953,187.1875 100,187.1875 C 51.870478,187.18751 12.8125,148.12953 12.8125,100 C 12.8125,51.870475 51.87048,12.8125 100,12.8125 z M 101.46875,34.0625 C 96.020051,34.091649 90.817035,34.799114 86.1875,36.125 C 81.4888,37.4708 77.062102,39.608552 73.3125,42.34375 C 70.0742,44.70595 66.978801,47.734702 64.625,50.875 C 60.466,56.4238 58.164101,62.526103 57.5625,69.5625 C 57.5225,70.0301 57.492101,70.429602 57.5,70.4375 C 57.5161,70.4536 79.202202,73.125401 79.3125,73.125 C 79.3648,73.1248 79.424752,72.891497 79.59375,72.1875 C 81.53475,64.1027 85.080298,58.6671 90.5625,55.375 C 94.882,52.7811 100.36675,51.76265 106.34375,52.40625 C 109.08355,52.70125 111.55035,53.366251 113.71875,54.40625 C 116.43185,55.70745 118.90265,57.767249 120.65625,60.21875 C 122.19865,62.37515 123.12045,64.803051 123.40625,67.53125 C 123.48575,68.29035 123.4649,70.011299 123.375,70.75 C 123.1529,72.5755 122.6786,74.12795 121.875,75.71875 C 121.0682,77.31565 120.3985,78.232851 119.125,79.53125 C 117.0884,81.60785 113.93985,84.360496 108.34375,88.9375 C 104.74365,91.8819 102.30495,94.094052 100.21875,96.28125 C 95.27745,101.46185 93.02905,105.3494 91.65625,111 C 90.75135,114.7246 90.399597,118.5498 90.5,124.1875 C 90.5249,125.5883 90.562101,126.92065 90.5625,127.15625 L 90.5625,127.59375 L 112.15625,127.59375 L 112.1875,125.1875 C 112.2233,121.9237 112.3966,119.82475 112.75,117.78125 C 113.315,114.51485 114.1757,112.78395 116.6875,109.96875 C 118.2944,108.16765 120.3906,106.2071 123.625,103.5 C 128.3938,99.508696 131.7323,96.510498 134.875,93.375 C 139.7932,88.4678 142.34115,85.114697 144.15625,81.1875 C 145.58515,78.0957 146.378,75.021652 146.625,71.65625 C 146.685,70.83965 146.6858,68.626201 146.625,67.6875 C 146.1695,60.6454 143.51655,54.43505 138.46875,48.65625 C 137.67495,47.74745 135.6887,45.769001 134.75,44.9375 C 129.7902,40.544 124.0559,37.585152 117.1875,35.84375 C 113.0012,34.78235 108.96115,34.24445 103.84375,34.09375 C 103.05636,34.070563 102.24714,34.058336 101.46875,34.0625 z M 90.5625,137.65625 L 90.5625,159.65625 L 112.5625,159.65625 L 112.5625,137.65625 L 90.5625,137.65625 z"
       id="path2413"
       style="fill:#000000" />
  </g>
</svg>
